PathFileType	4	(X/Y/Z)	S01_0010_Gait_markers.trc
DataRate	CameraRate	NumFrames	NumMarkers	Units	OrigDataRate	OrigDataStartFrame	OrigNumFrames
250.000000	250.000000	4	54	mm	250.000000	309	354
Frame#	Time	HEAD_ANT			R_HEAD			L_HEAD			C7			R_BACK			L_BACK			STERNUM			R_ACROMION			R_HUM_PROX			R_HUM_ANT			R_HUM_POST			R_ELBOW_LAT			R_ELBOW_MED			R_FOREARM			R_WIRST_LAT			R_WRITS_MED			R_HAND			L_ACROMION			L_HUM_PROX			L_HUM_ANT			L_HUM_POST			L_ELBOW_LAT			L_ELBOW_MED			L_FOREARM			L_WRIST_LAT			L_WIRST_MED			L_HAND			R_ILIAC			SACRUM			L_ILIAC			R_GTROCH			R_THIGH__1			R_THIGH_2			R_THIGH_3			R_THIGH_4			R_SHANK_1			R_SHANK_2			R_SHANK_3			R_SHANK_4			R_HEEL			R_FOOT_LAT			R_FOOT_MED			L_GTROCH			L_THIGH_1			L_THIGH_2			L_THIGH_3			L_THIGH_4			L_SHANK_1			L_SHANK_2			L_SHANK_3			L_SHANK_4			L_HEEL			L_FOOT_LAT			L_FOOT_MED			
		X1	Y1	Z1	X2	Y2	Z2	X3	Y3	Z3	X4	Y4	Z4	X5	Y5	Z5	X6	Y6	Z6	X7	Y7	Z7	X8	Y8	Z8	X9	Y9	Z9	X10	Y10	Z10	X11	Y11	Z11	X12	Y12	Z12	X13	Y13	Z13	X14	Y14	Z14	X15	Y15	Z15	X16	Y16	Z16	X17	Y17	Z17	X18	Y18	Z18	X19	Y19	Z19	X20	Y20	Z20	X21	Y21	Z21	X22	Y22	Z22	X23	Y23	Z23	X24	Y24	Z24	X25	Y25	Z25	X26	Y26	Z26	X27	Y27	Z27	X28	Y28	Z28	X29	Y29	Z29	X30	Y30	Z30	X31	Y31	Z31	X32	Y32	Z32	X33	Y33	Z33	X34	Y34	Z34	X35	Y35	Z35	X36	Y36	Z36	X37	Y37	Z37	X38	Y38	Z38	X39	Y39	Z39	X40	Y40	Z40	X41	Y41	Z41	X42	Y42	Z42	X43	Y43	Z43	X44	Y44	Z44	X45	Y45	Z45	X46	Y46	Z46	X47	Y47	Z47	X48	Y48	Z48	X49	Y49	Z49	X50	Y50	Z50	X51	Y51	Z51	X52	Y52	Z52	X53	Y53	Z53	X54	Y54	Z54	

310	1.236	1877.958374023438	1708.822998046875	-292.7835693359371	1815.85205078125	1651.844360351562	-219.821624755859	1815.897216796875	1666.651245117188	-366.3600463867184	1680.055541992188	1490.498168945312	-307.0846252441403	1605.908569335938	1288.3291015625	-249.9022827148435	1611.249389648438	1294.582763671875	-388.1154479980466	1864.836181640625	1332.372680664062	-305.9910888671872	1751.434204101562	1437.088989257812	-134.8883666992184	1706.87353515625	1278.17333984375	-47.69522476196261	1765.811279296875	1191.4580078125	-38.19547653198216	1644.114379882812	1196.824096679688	-37.99717712402317	1690.1748046875	1088.049926757812	-25.18752098083472	1667.626831054688	1083.707763671875	-105.2937393188474	1794.331298828125	905.2208251953125	-27.01197814941386	1838.796508789062	842.8511352539062	-64.83287048339825	1766.190673828125	815.6349487304688	-40.82810211181623	1832.850708007812	750.496826171875	-16.26485824584944	1767.958129882812	1447.937622070312	-474.104339599609	1757.10546875	1282.443115234375	-571.5834960937497	1823.96875	1205.654418945313	-570.174133300781	1703.970947265625	1202.102661132813	-600.9813842773435	1769.334716796875	1101.246948242188	-608.4443359374998	1716.002685546875	1089.014038085938	-551.3300170898435	1898.1591796875	942.5367431640626	-577.6000976562498	1933.820922851562	889.8942260742189	-522.222961425781	1898.053955078125	857.5759277343751	-586.132385253906	1981.864624023438	815.9362792968751	-562.3776245117185	1775.838745117188	1044.339965820312	-142.5182342529295	1645.874877929688	1014.145385742188	-309.8491516113279	1762.929321289062	1036.85498046875	-489.8048400878904	1753.3837890625	899.4407958984375	-129.7512969970701	1888.694458007812	641.2486572265625	-165.5936889648436	1935.115844726562	676.7899169921875	-173.076202392578	1967.279174804688	581.1075439453125	-212.1896820068358	1910.518676757812	564.5994873046875	-187.8383789062499	1948.924560546875	342.2348632812501	-187.0995788574218	2003.643310546875	331.4123840332032	-211.9374084472655	2010.22900390625	247.3421325683594	-231.3805236816406	1949.095581054688	242.2895660400391	-209.0346984863281	1925.144775390625	38.70682144165045	-293.5979309082031	2094.363525390625	21.93396949768071	-222.5523071289062	2136.503173828125	39.54026031494148	-320.2858581542969	1712.642700195312	926.7371826171876	-494.3339843749998	1738.952026367188	634.0365600585939	-490.5438842773436	1690.16455078125	666.3401489257814	-498.5764160156248	1655.265502929688	568.4400634765626	-474.9823608398436	1717.44873046875	555.3762207031251	-472.4704284667968	1524.27587890625	341.1433715820314	-460.7100830078124	1468.42041015625	365.2060852050782	-458.3615112304687	1408.821411132812	303.7430419921876	-438.5060729980468	1460.21826171875	263.8946533203126	-435.9615783691406	1268.004150390625	209.2552947998048	-363.6686401367187	1320.12890625	36.10234069824228	-403.2603759765625	1350.94873046875	37.87929534912116	-303.3151245117188	
311	1.24	1884.094360351562	1709.435913085938	-292.2068176269527	1823.494018554688	1652.140869140625	-219.0293121337887	1822.265502929688	1667.057373046875	-365.6679077148434	1686.316040039062	1490.8515625	-306.6463623046872	1612.510864257812	1288.723388671875	-249.3579254150388	1617.644287109375	1294.979614257812	-387.921691894531	1871.260498046875	1332.941162109375	-305.756652832031	1758.053466796875	1437.655883789062	-134.6397552490231	1714.056396484375	1278.587036132812	-47.23463821411104	1773.289794921875	1191.946533203125	-38.44239044189427	1651.600341796875	1197.048095703125	-37.31520843505833	1697.37451171875	1088.502685546875	-25.16158676147437	1674.775390625	1084.44287109375	-105.2071762084959	1801.854125976562	905.8082885742188	-27.32627487182597	1846.332641601562	843.37158203125	-65.15384674072247	1773.883422851562	816.353515625	-40.91399383544903	1840.268310546875	751.0886840820312	-16.74722862243636	1774.513427734375	1448.632446289062	-473.4620971679684	1763.309936523438	1283.27587890625	-571.1926879882809	1829.800537109375	1206.462646484375	-571.0568237304685	1709.24951171875	1202.615356445313	-599.366516113281	1775.027221679688	1101.977905273438	-608.213195800781	1721.40966796875	1090.100341796875	-550.789855957031	1902.970336914062	942.6041870117189	-578.0747070312498	1938.590576171875	889.7948608398439	-523.0769042968748	1902.043212890625	857.4677124023439	-586.617736816406	1985.9033203125	815.3258666992189	-563.5778808593748	1782.208984375	1045.82470703125	-142.5331115722654	1652.300537109375	1014.275695800781	-309.8497314453123	1770.021362304688	1037.140258789062	-489.4980468749998	1759.443725585938	900.4205932617188	-129.5608215332029	1895.120727539062	641.1944580078125	-165.1293487548827	1941.52685546875	676.7509765625	-173.0703735351561	1973.594116210938	580.4827880859375	-214.2513122558592	1916.587280273438	564.6786499023438	-187.7024536132811	1952.946411132812	342.1259765625001	-187.5309600830077	2007.505859375	330.9528503417969	-212.716094970703	2013.312866210938	246.6754760742188	-231.9378662109374	1952.240966796875	242.0813293457032	-209.4362487792968	1925.464721679688	39.00056457519538	-293.4867858886719	2094.712646484375	21.84039115905767	-222.6509246826172	2137.134521484375	38.3712463378907	-321.0755615234375	1719.832397460938	926.3265991210939	-494.3627014160154	1748.106567382812	633.4356079101564	-490.6969604492186	1699.0703125	665.4897460937501	-498.8966064453123	1665.300170898438	567.2994995117189	-476.3458557128905	1727.599975585938	554.8052978515626	-473.8893737792968	1533.564453125	341.5025634765626	-461.9751586914062	1477.832641601562	365.934783935547	-459.5343322753906	1417.7109375	304.9987182617189	-439.4428710937499	1468.704711914062	264.5515136718751	-437.6481628417968	1276.509155273438	213.1719055175782	-365.7247924804687	1323.868774414062	38.14152526855478	-403.547607421875	1354.208618164062	39.97822189331061	-303.2522277832031	
312	1.244	1890.272094726562	1709.776611328125	-291.6663208007809	1829.652465820312	1652.446166992188	-218.6348266601559	1828.841186523438	1667.447998046875	-364.8703308105465	1692.512084960938	1491.078369140625	-306.2788696289059	1619.68701171875	1288.685302734375	-248.4101867675778	1623.964599609375	1295.30126953125	-387.8185119628903	1877.640869140625	1333.36376953125	-305.1487731933591	1764.564697265625	1438.226196289062	-134.4201354980466	1721.316284179688	1279.076782226562	-46.96170425415011	1780.781494140625	1192.397583007812	-38.76397705078099	1659.18408203125	1197.619018554688	-36.49737548828099	1705.054321289062	1089.046508789062	-25.06558036804175	1681.908813476562	1085.01904296875	-105.2813186645505	1809.450805664062	906.4794921875	-27.63183212280253	1853.92431640625	843.9318237304688	-65.47498321533185	1781.466064453125	816.944091796875	-40.97267150878888	1847.912353515625	751.6104736328125	-16.99850654602034	1780.862182617188	1449.328002929688	-473.0195617675778	1769.421264648438	1283.931518554688	-570.8692016601559	1835.817993164062	1207.09716796875	-570.8570556640623	1715.14794921875	1203.5966796875	-598.8238525390623	1780.30517578125	1102.78759765625	-607.8430175781248	1726.966918945312	1091.124755859375	-550.1119384765623	1907.643676757812	942.7297363281251	-578.3999023437498	1943.154541015625	889.4792480468751	-523.7816162109373	1906.054321289062	857.6758422851564	-586.8690185546873	1989.646484375	814.6419067382814	-564.6474609374998	1789.42626953125	1047.471313476562	-142.3666687011716	1658.969482421875	1014.205261230469	-309.896057128906	1777.331909179688	1037.373291015625	-489.2987976074216	1765.57470703125	901.286376953125	-129.3803710937498	1901.128540039062	641.1695556640625	-164.9501342773436	1947.606201171875	676.4360961914062	-172.9752349853514	1979.167236328125	580.4080810546875	-214.1834869384764	1922.23388671875	564.4637451171875	-187.5930633544921	1957.052124023438	342.1083068847657	-187.6337738037109	2011.347412109375	330.4953918457032	-213.1622161865234	2016.1767578125	246.2387390136719	-232.6450958251953	1955.293090820312	242.2406616210938	-209.2372131347656	1925.7265625	39.17495727539069	-293.4919738769531	2095.001953125	21.74744796752935	-222.7166290283203	2137.705322265625	37.4781799316407	-321.842041015625	1727.009887695312	925.8982543945314	-494.2109069824216	1759.345092773438	634.6536254882814	-494.0148620605468	1708.263305664062	664.8369750976564	-500.0711364746092	1675.296142578125	566.1134033203126	-477.520050048828	1737.588989257812	554.0609741210939	-475.0124206542968	1542.946655273438	341.6289062500001	-463.2917785644531	1487.722045898438	366.6372985839845	-460.0404968261718	1426.879516601562	306.3945312500001	-440.4444885253906	1477.373413085938	265.2371826171876	-438.7232055664062	1285.009033203125	217.291717529297	-367.6338500976562	1329.2509765625	41.0388946533204	-402.9441528320312	1357.884033203125	42.20492172241217	-303.4684448242188	
313	1.248	1896.509521484375	1710.04736328125	-291.3129882812496	1834.64404296875	1652.848754882812	-218.1445312499996	1834.460205078125	1667.781494140625	-364.8077392578121	1698.672485351562	1491.445068359375	-305.9687499999997	1626.051391601562	1289.098022460938	-247.6830139160153	1630.305053710938	1295.62939453125	-387.7956237792966	1883.51513671875	1334.266967773438	-305.1032714843747	1771.153198242188	1438.8037109375	-134.2121124267575	1728.698486328125	1279.610717773438	-46.53467559814425	1788.161254882812	1192.89892578125	-38.96852874755833	1666.554809570312	1197.943603515625	-35.76670455932591	1712.820922851562	1089.677368164062	-24.71399879455542	1689.003540039062	1085.656372070312	-104.8458633422849	1817.182495117188	907.0936279296875	-27.99312782287577	1861.561645507812	844.5853881835938	-65.88994598388653	1789.1728515625	817.31982421875	-41.48867034912091	1855.70361328125	752.190185546875	-17.12643432617171	1787.296752929688	1449.945922851562	-472.4753723144528	1775.455932617188	1284.7685546875	-570.5781249999997	1841.665771484375	1207.560668945313	-570.5706787109373	1720.702758789062	1204.354370117188	-598.225891113281	1785.891845703125	1103.593627929688	-607.5067138671873	1737.200805664062	1090.465942382813	-549.7603759765623	1912.306762695312	942.8264160156251	-579.0596923828123	1947.810302734375	889.0238037109376	-524.3437499999998	1910.16552734375	857.7834472656251	-587.245666503906	1993.703979492188	814.1517333984376	-565.592834472656	1796.075805664062	1048.842529296875	-142.5760345458982	1665.07177734375	1014.164978027344	-310.081848144531	1786.538940429688	1038.31494140625	-489.1772766113279	1771.528686523438	902.1300659179688	-129.0590667724607	1906.984375	641.1285400390625	-164.6829223632811	1953.533935546875	676.1676025390625	-172.6810150146483	1984.611694335938	580.1710205078125	-214.2844238281249	1927.587036132812	564.2568359375	-187.6513214111327	1960.93701171875	341.9983825683594	-187.7379302978515	2014.89892578125	329.9989624023438	-213.6649475097655	2018.9140625	245.7395629882813	-233.2306671142578	1958.237548828125	242.297348022461	-209.6286163330078	1925.955688476562	39.34622192382819	-293.5755920410156	2095.2470703125	21.67920875549321	-222.7547607421875	2138.30908203125	36.6712951660157	-322.4205627441406	1734.165405273438	925.5239257812501	-493.8932189941404	1768.8251953125	634.5050659179689	-495.2501220703124	1717.239624023438	664.0904541015626	-500.9971618652342	1685.300170898438	564.8256225585939	-478.3073730468749	1747.798217773438	553.4201660156251	-476.4300842285155	1552.53515625	341.4968261718751	-464.4877929687499	1497.445434570312	367.1966247558595	-461.0896301269531	1436.095947265625	307.4434509277345	-441.3526000976562	1486.21630859375	266.0087890625001	-439.6181030273437	1293.5908203125	221.3192138671876	-369.3807373046874	1334.435913085938	44.28320312500009	-403.5080261230469	1361.801025390625	44.69445037841803	-303.8175354003906	
